# xmcd
#
# Track frame offsets: 
#        150
#        9273
#        19424
#        30701
#        41498
#        53333
#        63582
#        73482
#        82277
#        91825
#        102891
#        113608
#        123805
#        133807
#        144490
#        155377
#        166813
#        176625
#        188346
#        198981
#        207820
#        218262
#        227279
#        240273
#        250766
#        260971
#        270971
#        281665
#        292850
#        302458
#        313989
#        323262
#
# Disc length: 4444 seconds
#
# Revision: 0
# Processed by: cddbd v1.5.2PL0 Copyright (c) Steve Scherf et al.
# Submitted via: ExactAudioCopy v1.0b3
#
DISCID=a8115a20
DTITLE=Johnny Horton - The Singing Fisherman [Disc 4]
DYEAR=2014
DGENRE=Country
TTITLE0=I'm A One Woman Man [1956]
TTITLE1=Honky Tonk Man [1956]
TTITLE2=I'm Ready If Your Willing [1956]
TTITLE3=I Got A Hole In My Pirogue [1957]
TTITLE4=Take Me Like I Am [1991]
TTITLE5=Sugar-Coated Baby [1960]
TTITLE6=I Don't Like I Did [1956]
TTITLE7=Hooray For That Little Difference [1961]
TTITLE8=I'm Coming Home [1957]
TTITLE9=Over-Loving You [1991]
TTITLE10=She Knows Why [1957]
TTITLE11=Honky Tonk Mind (The Woman I Need) [1957]
TTITLE12=Tell My Baby I Love Her [1961]
TTITLE13=Goodbye Lonesome, Hello Baby Doll [1961]
TTITLE14=I'll Do It Everytime [1957]
TTITLE15=You're My Baby [1957]
TTITLE16=Let's Take The Long Way Home [1957]
TTITLE17=Lover's Rock [1957]
TTITLE18=Honky-Tonk Hardwood Floor [1958]
TTITLE19=The Wild One [1958]
TTITLE20=Everytime I'm Kissing You [1961]
TTITLE21=Hot In The Sugarcane Field [1958]
TTITLE22=Lonesome And Heartbroken [1958]
TTITLE23=Seven Come Eleven [1958]
TTITLE24=I Can't Forget You [1958]
TTITLE25=Wise To The Ways Of A Woman (Alternative) [1958]
TTITLE26=Out In New Mexico [1958]
TTITLE27=Tetched In The Head [1958]
TTITLE28=Just Walk A Little Closer [1958]
TTITLE29=Don't Use My Heart For A Stepping Stone [1958]
TTITLE30=I Love You, Baby [1958]
TTITLE31=Wise To The Ways Of A Woman [1991]
EXTD=
EXTT0=
EXTT1=
EXTT2=
EXTT3=
EXTT4=
EXTT5=
EXTT6=
EXTT7=
EXTT8=
EXTT9=
EXTT10=
EXTT11=
EXTT12=
EXTT13=
EXTT14=
EXTT15=
EXTT16=
EXTT17=
EXTT18=
EXTT19=
EXTT20=
EXTT21=
EXTT22=
EXTT23=
EXTT24=
EXTT25=
EXTT26=
EXTT27=
EXTT28=
EXTT29=
EXTT30=
EXTT31=
PLAYORDER=
